<?xml version="1.0" standalone="yes"?>
<svg xmlns="http://www.w3.org/2000/svg" xmlns:xlink="http://www.w3.org/1999/xlink" viewBox="0 0 768 280" width="768" height="280">
  <path d=" M 100 234.5 L 100 207.5 L 154 207.5 L 154 72.5 L 100 72.5 L 100 45.5 L 262 45.5 L 262 72.5 L 208 72.5 L 208 207.5 L 262 207.5 L 262 234.5 L 100 234.5 Z " fill="rgb(51,59,72)"/>
  <path d=" M 355 234.5 L 355 153.5 L 328 153.5 L 328 126.5 L 301 126.5 L 301 45.5 L 355 45.5 L 355 126.5 L 409 126.5 L 409 45.5 L 463 45.5 L 463 126.5 L 436 126.5 L 436 153.5 L 409 153.5 L 409 234.5 L 355 234.5 Z " fill="rgb(51,59,72)"/>
  <path d=" M 502 234.5 L 502 207.5 L 475 207.5 L 475 180.5 L 529 180.5 L 529 207.5 L 610 207.5 L 610 153.5 L 502 153.5 L 502 126.5 L 475 126.5 L 475 72.5 L 502 72.5 L 502 45.5 L 637 45.5 L 637 72.5 L 664 72.5 L 664 99.5 L 610 99.5 L 610 72.5 L 529 72.5 L 529 126.5 L 637 126.5 L 637 153.5 L 664 153.5 L 664 207.5 L 637 207.5 L 637 234.5 L 502 234.5 Z " fill="rgb(51,59,72)"/>
</svg>
