<?xml version="1.0" standalone="no"?><!-- Generator: Gravit.io --><svg xmlns="http://www.w3.org/2000/svg" xmlns:xlink="http://www.w3.org/1999/xlink" style="isolation:isolate" viewBox="0 0 768 768" width="768" height="768"><defs><clipPath id="_clipPath_NrI7tfRkeHgQwQRHM5xiSRUQ7dy4MsqT"><rect width="768" height="768"/></clipPath></defs><g clip-path="url(#_clipPath_NrI7tfRkeHgQwQRHM5xiSRUQ7dy4MsqT)"><rect width="768" height="768" style="fill:rgb(51,59,72)"/><g><path d=" M 102 437.642 L 102 410.642 L 156 410.642 L 156 275.642 L 102 275.642 L 102 248.642 L 264 248.642 L 264 275.642 L 210 275.642 L 210 410.642 L 264 410.642 L 264 437.642 L 102 437.642 Z " fill="rgb(254,252,251)"/><path d=" M 357 437.642 L 357 356.642 L 330 356.642 L 330 329.642 L 303 329.642 L 303 248.642 L 357 248.642 L 357 329.642 L 411 329.642 L 411 248.642 L 465 248.642 L 465 329.642 L 438 329.642 L 438 356.642 L 411 356.642 L 411 437.642 L 357 437.642 Z " fill="rgb(254,252,251)"/><path d=" M 504 437.642 L 504 410.642 L 477 410.642 L 477 383.642 L 531 383.642 L 531 410.642 L 612 410.642 L 612 356.642 L 504 356.642 L 504 329.642 L 477 329.642 L 477 275.642 L 504 275.642 L 504 248.642 L 639 248.642 L 639 275.642 L 666 275.642 L 666 302.642 L 612 302.642 L 612 275.642 L 531 275.642 L 531 329.642 L 639 329.642 L 639 356.642 L 666 356.642 L 666 410.642 L 639 410.642 L 639 437.642 L 504 437.642 Z " fill="rgb(254,252,251)"/></g><g><path d=" M 117.612 517.771 L 117.612 474.429 Q 117.612 473.775 118.234 473.775 L 122.715 473.775 Q 123.337 473.775 123.337 474.429 L 123.337 517.771 Q 123.337 518.394 122.715 518.394 L 118.234 518.394 Q 117.612 518.394 117.612 517.771 Z " fill="rgb(203,220,210)"/><path d=" M 149.432 517.771 L 149.432 484.945 Q 149.432 484.292 150.054 484.292 L 153.57 484.292 Q 154.192 484.292 154.255 484.945 L 154.846 488.43 Q 155.219 487.901 156.464 486.843 Q 157.708 485.754 158.891 485.101 Q 161.94 483.359 165.985 483.359 Q 172.426 483.359 176.533 487.341 Q 180.64 491.324 180.64 498.325 L 180.64 517.771 Q 180.64 518.394 180.018 518.394 L 175.537 518.394 Q 174.915 518.394 174.915 517.771 L 174.915 498.325 Q 174.915 493.284 172.301 490.546 Q 169.687 487.808 165.674 487.808 Q 163.838 487.808 162.033 488.524 Q 160.26 489.208 159.077 490.173 Q 157.895 491.106 156.993 492.102 Q 155.157 494.062 155.157 494.498 L 155.157 517.771 Q 155.157 518.394 154.535 518.394 L 150.054 518.394 Q 149.432 518.394 149.432 517.771 Z " fill="rgb(203,220,210)"/><path d=" M 260.221 473.775 Q 260.874 473.775 260.874 474.242 Q 260.874 474.366 260.75 474.429 L 243.325 503.427 L 243.325 517.771 Q 243.325 518.394 242.703 518.394 L 238.254 518.394 Q 237.6 518.394 237.6 517.771 L 237.6 503.427 L 220.207 474.429 Q 220.145 474.366 220.145 474.242 L 220.145 474.055 Q 220.332 473.775 220.705 473.775 L 225.372 473.775 Q 226.212 473.775 226.648 474.429 L 240.463 497.422 L 254.309 474.429 Q 254.745 473.775 255.585 473.775 L 260.221 473.775 Z " fill="rgb(203,220,210)"/><path d=" M 293.908 519.358 Q 286.471 519.358 281.897 514.691 Q 277.355 509.993 277.355 501.312 Q 277.355 492.6 281.897 487.995 Q 286.471 483.359 293.908 483.359 Q 301.375 483.359 305.918 487.995 Q 310.492 492.6 310.492 501.312 Q 310.492 509.993 305.918 514.691 Q 301.375 519.358 293.908 519.358 Z  M 293.908 487.808 Q 289.085 487.808 286.067 491.199 Q 283.08 494.56 283.08 501.281 Q 283.08 508.001 286.067 511.455 Q 289.085 514.878 293.908 514.878 Q 298.761 514.878 301.748 511.455 Q 304.767 508.001 304.767 501.281 Q 304.767 494.56 301.748 491.199 Q 298.761 487.808 293.908 487.808 Z " fill="rgb(203,220,210)"/><path d=" M 334.004 504.361 L 334.004 484.945 Q 334.004 484.323 334.626 484.292 L 339.107 484.292 Q 339.729 484.292 339.729 484.945 L 339.729 504.361 Q 339.729 509.402 342.343 512.14 Q 344.956 514.878 348.97 514.878 Q 350.806 514.878 352.579 514.193 Q 354.384 513.478 355.566 512.544 Q 356.749 511.58 357.682 510.584 Q 359.487 508.624 359.487 508.188 L 359.487 484.945 Q 359.487 484.323 360.109 484.292 L 364.59 484.292 Q 365.212 484.292 365.212 484.945 L 365.212 517.771 Q 365.212 518.394 364.59 518.394 L 361.074 518.394 Q 360.451 518.394 360.389 517.771 L 359.798 514.255 Q 359.394 514.878 358.149 515.904 Q 356.935 516.931 355.753 517.585 Q 352.642 519.358 348.659 519.358 Q 342.218 519.358 338.111 515.376 Q 334.004 511.362 334.004 504.361 L 334.004 504.361 Z " fill="rgb(203,220,210)"/><path d=" M 391.213 517.771 L 391.213 484.945 Q 391.213 484.292 391.836 484.292 L 395.352 484.292 Q 395.974 484.292 396.036 484.945 L 396.627 490.359 L 397.125 489.644 Q 397.467 489.208 398.681 488.026 Q 399.926 486.843 401.419 486.003 Q 402.944 485.132 405.402 484.416 Q 407.891 483.67 410.629 483.67 L 413.18 483.67 Q 413.834 483.67 413.834 484.292 L 413.834 488.119 Q 413.834 488.773 413.18 488.773 L 411.282 488.773 Q 408.171 488.773 405.557 489.581 Q 402.944 490.359 401.388 491.479 Q 398.245 493.782 397.312 495.587 L 396.939 496.396 L 396.939 517.771 Q 396.939 518.394 396.316 518.394 L 391.836 518.394 Q 391.213 518.394 391.213 517.771 L 391.213 517.771 Z " fill="rgb(203,220,210)"/><path d=" M 450.508 506.85 Q 450.508 506.29 451.161 506.29 L 455.175 506.29 Q 455.735 506.29 455.953 506.912 Q 458.628 514.878 469.581 514.878 Q 475.306 514.878 478.324 512.855 Q 481.373 510.802 481.373 507.784 Q 481.373 504.765 479.444 502.93 Q 477.546 501.063 473.47 499.912 L 462.3 496.738 Q 451.472 493.626 451.472 484.945 Q 451.472 479.594 456.015 476.233 Q 460.589 472.842 468.243 472.842 Q 475.897 472.842 480.595 476.14 Q 485.325 479.407 486.538 485.132 Q 486.663 485.91 485.885 485.91 L 481.871 485.91 Q 481.311 485.91 481.093 485.257 Q 478.417 477.291 468.367 477.291 Q 463.078 477.291 460.122 479.345 Q 457.197 481.367 457.197 484.448 Q 457.197 487.497 459.095 489.27 Q 461.024 491.044 465.163 492.257 L 476.333 495.462 Q 487.098 498.511 487.098 507.255 Q 487.098 512.669 482.4 516.029 Q 477.733 519.358 469.581 519.358 Q 461.429 519.358 456.575 516.091 Q 454.148 514.473 452.312 511.984 Q 450.508 509.464 450.508 506.85 L 450.508 506.85 Z " fill="rgb(203,220,210)"/><path d=" M 511.015 516.465 Q 507.437 513.54 507.437 508.53 Q 507.437 503.49 511.109 500.596 Q 514.811 497.671 521.439 497.671 L 532.298 497.671 L 532.298 497.36 Q 532.298 487.808 522.714 487.808 Q 519.727 487.808 517.612 489.239 Q 515.527 490.67 514.749 492.911 Q 514.562 493.533 514.002 493.533 L 509.988 493.533 Q 509.273 493.533 509.335 492.911 Q 509.833 488.586 513.442 485.972 Q 517.051 483.359 522.714 483.359 Q 530.12 483.359 534.071 487.03 Q 538.023 490.67 538.023 497.36 L 538.023 517.771 Q 538.023 518.394 537.369 518.394 L 533.884 518.394 Q 533.262 518.394 533.169 517.771 L 532.609 514.255 Q 532.235 514.847 530.96 515.904 Q 529.684 516.931 528.408 517.585 Q 525.048 519.358 520.816 519.358 Q 514.624 519.358 511.015 516.465 L 511.015 516.465 Z  M 513.162 508.53 Q 513.162 511.642 515.216 513.26 Q 517.3 514.878 521.127 514.878 Q 523.181 514.878 525.079 514.193 Q 527.008 513.478 528.222 512.544 Q 529.466 511.58 530.431 510.584 Q 531.395 509.588 531.831 508.935 Q 532.298 508.25 532.298 508.188 L 532.298 502.152 L 521.439 502.152 Q 513.162 502.152 513.162 508.53 L 513.162 508.53 Z " fill="rgb(203,220,210)"/><path d=" M 564.491 516.465 Q 560.913 513.54 560.913 508.53 Q 560.913 503.49 564.584 500.596 Q 568.287 497.671 574.914 497.671 L 585.773 497.671 L 585.773 497.36 Q 585.773 487.808 576.19 487.808 Q 573.203 487.808 571.087 489.239 Q 569.003 490.67 568.225 492.911 Q 568.038 493.533 567.478 493.533 L 563.464 493.533 Q 562.748 493.533 562.811 492.911 Q 563.309 488.586 566.918 485.972 Q 570.527 483.359 576.19 483.359 Q 583.595 483.359 587.547 487.03 Q 591.498 490.67 591.498 497.36 L 591.498 517.771 Q 591.498 518.394 590.845 518.394 L 587.36 518.394 Q 586.738 518.394 586.645 517.771 L 586.084 514.255 Q 585.711 514.847 584.435 515.904 Q 583.16 516.931 581.884 517.585 Q 578.524 519.358 574.292 519.358 Q 568.1 519.358 564.491 516.465 L 564.491 516.465 Z  M 566.638 508.53 Q 566.638 511.642 568.691 513.26 Q 570.776 514.878 574.603 514.878 Q 576.657 514.878 578.555 514.193 Q 580.484 513.478 581.697 512.544 Q 582.942 511.58 583.906 510.584 Q 584.871 509.588 585.307 508.935 Q 585.773 508.25 585.773 508.188 L 585.773 502.152 L 574.914 502.152 Q 566.638 502.152 566.638 508.53 L 566.638 508.53 Z " fill="rgb(203,220,210)"/><path d=" M 613.797 506.85 Q 613.797 506.29 614.451 506.29 L 618.464 506.29 Q 619.025 506.29 619.242 506.912 Q 621.918 514.878 632.871 514.878 Q 638.596 514.878 641.614 512.855 Q 644.663 510.802 644.663 507.784 Q 644.663 504.765 642.734 502.93 Q 640.836 501.063 636.76 499.912 L 625.59 496.738 Q 614.762 493.626 614.762 484.945 Q 614.762 479.594 619.305 476.233 Q 623.878 472.842 631.533 472.842 Q 639.187 472.842 643.885 476.14 Q 648.615 479.407 649.828 485.132 Q 649.952 485.91 649.175 485.91 L 645.161 485.91 Q 644.601 485.91 644.383 485.257 Q 641.707 477.291 631.657 477.291 Q 626.368 477.291 623.412 479.345 Q 620.487 481.367 620.487 484.448 Q 620.487 487.497 622.385 489.27 Q 624.314 491.044 628.452 492.257 L 639.622 495.462 Q 650.388 498.511 650.388 507.255 Q 650.388 512.669 645.69 516.029 Q 641.023 519.358 632.871 519.358 Q 624.718 519.358 619.865 516.091 Q 617.438 514.473 615.602 511.984 Q 613.797 509.464 613.797 506.85 L 613.797 506.85 Z " fill="rgb(203,220,210)"/></g></g></svg>